<?xml version="1.0" ?><svg fill="none" height="24" viewBox="0 0 24 24" width="24" xmlns="http://www.w3.org/2000/svg"><path clip-rule="evenodd" d="M13.9393 12.253L19.2219 6.9705C17.7532 5.15584 15.5108 4 13 4C8.58172 4 5 7.58172 5 12C5 16.4183 8.58172 20 13 20C14.4795 20 15.8631 19.5997 17.0511 18.9004L13.9393 15.7886C12.963 14.8123 12.963 13.2294 13.9393 12.253ZM21.6065 6.9049C21.7195 7.09545 21.6835 7.33726 21.5269 7.49393L15.3536 13.6673C15.1583 13.8625 15.1583 14.1791 15.3536 14.3744L19.7066 18.7274C19.902 18.9229 19.9026 19.2409 19.6974 19.4261C17.9246 21.0259 15.576 22 13 22C7.47715 22 3 17.5228 3 12C3 6.47715 7.47715 2 13 2C16.662 2 19.8643 3.96842 21.6065 6.9049ZM14 9C14.5523 9 15 8.55228 15 8C15 7.44772 14.5523 7 14 7C13.4477 7 13 7.44772 13 8C13 8.55228 13.4477 9 14 9Z" fill="black" fill-rule="evenodd"/></svg>